<svg xmlns="http://www.w3.org/2000/svg" width="720" height="180" viewBox="0 0 720 180" role="img" aria-label="Pawsnap Puppy state contact sheet">
  <rect width="720" height="180" fill="#fafaf7"/>
  <style>
    text { font: 14px system-ui, -apple-system, BlinkMacSystemFont, "Segoe UI", sans-serif; fill: #15161d; }
    .tile { fill: #fff7ea; stroke: #ece2d4; }
  </style>
  <defs>
    <g id="puppy">
      <ellipse cx="32" cy="50" rx="18" ry="4" fill="#000" opacity=".08"/>
      <path d="M47 37 C58 31 56 47 48 49" fill="none" stroke="#d88335" stroke-width="5" stroke-linecap="round"/>
      <ellipse cx="32" cy="39" rx="16" ry="18" fill="#f5bd72"/>
      <ellipse cx="19" cy="42" rx="6" ry="14" fill="#a95d2c" transform="rotate(-18 19 42)"/>
      <ellipse cx="45" cy="42" rx="6" ry="14" fill="#a95d2c" transform="rotate(18 45 42)"/>
      <circle cx="32" cy="24" r="16" fill="#f5bd72"/>
      <ellipse cx="22" cy="24" rx="5" ry="11" fill="#d88335" transform="rotate(-20 22 24)"/>
      <ellipse cx="42" cy="24" rx="5" ry="11" fill="#d88335" transform="rotate(20 42 24)"/>
      <circle cx="26" cy="23" r="2.4" fill="#241710"/>
      <circle cx="38" cy="23" r="2.4" fill="#241710"/>
      <ellipse cx="32" cy="29" rx="7" ry="5" fill="#ffe2a6"/>
      <circle cx="32" cy="27" r="2" fill="#241710"/>
      <path d="M28 31 Q32 35 36 31" fill="none" stroke="#241710" stroke-width="2" stroke-linecap="round"/>
      <path d="M20 34 Q32 43 44 34" fill="none" stroke="#3f8df4" stroke-width="4" stroke-linecap="round"/>
      <circle cx="32" cy="39" r="2.4" fill="#ffd44d"/>
    </g>
    <path id="sparkle" d="M48 14 L50 19 L55 21 L50 23 L48 28 L46 23 L41 21 L46 19 Z" fill="#ff8a3d" opacity=".92"/>
  </defs>
  <g transform="translate(20 20)">
    <rect class="tile" width="120" height="120" rx="10"/>
    <use href="#puppy" x="28" y="18"/>
    <text x="42" y="152">idle</text>
  </g>
  <g transform="translate(160 20)">
    <rect class="tile" width="120" height="120" rx="10"/>
    <use href="#puppy" x="28" y="18" transform="rotate(-4 220 72)"/>
    <use href="#sparkle" x="32" y="18"/>
    <text x="30" y="152">thinking</text>
  </g>
  <g transform="translate(300 20)">
    <rect class="tile" width="120" height="120" rx="10"/>
    <use href="#puppy" x="28" y="18"/>
    <path d="M57 50 Q60 56 63 50" fill="none" stroke="#241710" stroke-width="2" stroke-linecap="round"/>
    <text x="34" y="152">talking</text>
  </g>
  <g transform="translate(440 20)">
    <rect class="tile" width="120" height="120" rx="10"/>
    <use href="#puppy" x="28" y="10"/>
    <use href="#sparkle" x="36" y="10"/>
    <text x="24" y="152">celebrate</text>
  </g>
  <g transform="translate(580 20)">
    <rect class="tile" width="120" height="120" rx="10"/>
    <use href="#puppy" x="24" y="18" transform="rotate(6 640 72)"/>
    <text x="42" y="152">wince</text>
  </g>
</svg>
